<svg width="512" height="512" viewBox="0 0 512 512" fill="none" xmlns="http://www.w3.org/2000/svg">
  <rect width="512" height="512" rx="128" fill="#2563eb"/>
  <path d="M256 120C228.386 120 206 142.386 206 170V180H156C145.506 180 137 188.506 137 199V373C137 383.494 145.506 392 156 392H356C366.494 392 375 383.494 375 373V199C375 188.506 366.494 180 356 180H306V170C306 142.386 283.614 120 256 120ZM256 150C266.477 150 276 159.523 276 170V180H236V170C236 159.523 245.523 150 256 150ZM167 210H345V362H167V210ZM206 250V280H306V250H206ZM206 310V340H306V310H206Z" fill="white"/>
</svg>
